# xmcd CD database file
#
# Track frame offsets:
#	150
#	17767
#	35170
#	62500
#	81875
#	98582
#	119810
#	128545
#	154027
#
# Disc length: 2262 seconds
#
# Revision: 0
# Processed by: cddbd v1.4PL0 Copyright (c) Steve Scherf et al.
# Submitted via: CDex 1.50Beta5
#
DISCID=6d08d409
DTITLE=Bud Powell - Bud Powell In Paris
DYEAR=1963
DGENRE=Jazz
TTITLE0=I Can't Get Started
TTITLE1=How High The Moon
TTITLE2=Jordu
TTITLE3=Body And Soul
TTITLE4=Dear Old Stockholm
TTITLE5=Little Bennie
TTITLE6=Parisian Thoroughfare
TTITLE7=Reets And I
TTITLE8=Satin Doll
EXTD=YEAR: 1963
EXTT0=
EXTT1=
EXTT2=
EXTT3=
EXTT4=
EXTT5=
EXTT6=
EXTT7=
EXTT8=
PLAYORDER=
